<svg width="35" height="35" viewBox="0 0 35 35" fill="none" xmlns="http://www.w3.org/2000/svg">
<path d="M19.9427 6.29563C19.3215 3.73479 15.6785 3.73479 15.0573 6.29563C14.6548 7.95083 12.759 8.73542 11.3065 7.84875C9.05479 6.47792 6.47937 9.05479 7.85021 11.305C8.05627 11.643 8.17963 12.0248 8.21023 12.4195C8.24082 12.8141 8.17781 13.2104 8.0263 13.5761C7.87479 13.9418 7.63907 14.2666 7.33833 14.524C7.03759 14.7813 6.68033 14.9641 6.29563 15.0573C3.73479 15.6785 3.73479 19.3215 6.29563 19.9427C6.67999 20.0362 7.03687 20.219 7.33727 20.4764C7.63767 20.7337 7.87311 21.0583 8.02444 21.4238C8.17577 21.7893 8.23873 22.1853 8.20821 22.5797C8.17768 22.9741 8.05452 23.3557 7.84875 23.6935C6.47792 25.9452 9.05479 28.5206 11.305 27.1498C11.643 26.9437 12.0248 26.8204 12.4195 26.7898C12.8141 26.7592 13.2104 26.8222 13.5761 26.9737C13.9418 27.1252 14.2666 27.3609 14.524 27.6617C14.7813 27.9624 14.9641 28.3197 15.0573 28.7044C15.6785 31.2652 19.3215 31.2652 19.9427 28.7044C20.0362 28.32 20.219 27.9631 20.4764 27.6627C20.7337 27.3623 21.0583 27.1269 21.4238 26.9756C21.7893 26.8242 22.1853 26.7613 22.5797 26.7918C22.9741 26.8223 23.3557 26.9455 23.6935 27.1513C25.9452 28.5221 28.5206 25.9452 27.1498 23.695C26.9437 23.357 26.8204 22.9752 26.7898 22.5805C26.7592 22.1859 26.8222 21.7896 26.9737 21.4239C27.1252 21.0582 27.3609 20.7334 27.6617 20.476C27.9624 20.2187 28.3197 20.0359 28.7044 19.9427C31.2652 19.3215 31.2652 15.6785 28.7044 15.0573C28.32 14.9638 27.9631 14.781 27.6627 14.5236C27.3623 14.2663 27.1269 13.9417 26.9756 13.5762C26.8242 13.2107 26.7613 12.8147 26.7918 12.4203C26.8223 12.0259 26.9455 11.6443 27.1513 11.3065C28.5221 9.05479 25.9452 6.47937 23.695 7.85021C23.357 8.05627 22.9752 8.17963 22.5805 8.21023C22.1859 8.24082 21.7896 8.17781 21.4239 8.0263C21.0582 7.87479 20.7334 7.63907 20.476 7.33833C20.2187 7.03759 20.0359 6.68033 19.9427 6.29563Z" stroke="white" stroke-linecap="round" stroke-linejoin="round"/>
<path d="M20.5936 20.5936C21.4141 19.7731 21.875 18.6603 21.875 17.5C21.875 16.3397 21.4141 15.2269 20.5936 14.4064C19.7731 13.5859 18.6603 13.125 17.5 13.125C16.3397 13.125 15.2269 13.5859 14.4064 14.4064C13.5859 15.2269 13.125 16.3397 13.125 17.5C13.125 18.6603 13.5859 19.7731 14.4064 20.5936C15.2269 21.4141 16.3397 21.875 17.5 21.875C18.6603 21.875 19.7731 21.4141 20.5936 20.5936Z" stroke="white" stroke-linecap="round" stroke-linejoin="round"/>
</svg>
