<svg width="188" height="188" viewBox="0 0 188 188" fill="none" xmlns="http://www.w3.org/2000/svg">
<path fill-rule="evenodd" clip-rule="evenodd" d="M50.1356 17.0946C57.6939 16.4911 64.8691 13.5183 70.6394 8.59935C77.1566 3.04855 85.4376 0 93.9984 0C102.559 0 110.84 3.04855 117.357 8.59935C123.128 13.5183 130.303 16.4911 137.861 17.0946C146.397 17.7768 154.41 21.4769 160.465 27.5317C166.52 33.5865 170.22 41.6 170.902 50.1356C171.501 57.6909 174.474 64.8701 179.397 70.6394C184.948 77.1566 187.997 85.4376 187.997 93.9984C187.997 102.559 184.948 110.84 179.397 117.357C174.478 123.128 171.506 130.303 170.902 137.861C170.22 146.397 166.52 154.41 160.465 160.465C154.41 166.52 146.397 170.22 137.861 170.902C130.303 171.506 123.128 174.478 117.357 179.397C110.84 184.948 102.559 187.997 93.9984 187.997C85.4376 187.997 77.1566 184.948 70.6394 179.397C64.8691 174.478 57.6939 171.506 50.1356 170.902C41.6 170.22 33.5865 166.52 27.5317 160.465C21.4769 154.41 17.7768 146.397 17.0946 137.861C16.4911 130.303 13.5183 123.128 8.59935 117.357C3.04855 110.84 0 102.559 0 93.9984C0 85.4376 3.04855 77.1566 8.59935 70.6394C13.5183 64.8691 16.4911 57.6939 17.0946 50.1356C17.7768 41.6 21.4769 33.5865 27.5317 27.5317C33.5865 21.4769 41.6 17.7768 50.1356 17.0946ZM137.556 78.8056C139.696 76.5895 140.88 73.6215 140.854 70.5406C140.827 67.4598 139.591 64.5128 137.412 62.3342C135.234 60.1557 132.287 58.9199 129.206 58.8932C126.125 58.8664 123.157 60.0507 120.941 62.1911L82.2484 100.884L67.0556 85.6911C64.8395 83.5508 61.8714 82.3664 58.7906 82.3932C55.7098 82.42 52.7628 83.6557 50.5842 85.8342C48.4057 88.0128 47.1699 90.9598 47.1432 94.0406C47.1164 97.1215 48.3007 100.09 50.4411 102.306L73.9411 125.806C76.1446 128.008 79.1327 129.246 82.2484 129.246C85.364 129.246 88.3521 128.008 90.5556 125.806L137.556 78.8056Z" fill="#043AA3"/>
</svg>
