<svg width="50" height="50" viewBox="0 0 50 50" fill="none" xmlns="http://www.w3.org/2000/svg">
<path d="M39.5833 43.75V10.4167C39.5833 9.3116 39.1443 8.25179 38.3629 7.47039C37.5815 6.68899 36.5217 6.25 35.4167 6.25H14.5833C13.4783 6.25 12.4185 6.68899 11.6371 7.47039C10.8557 8.25179 10.4167 9.3116 10.4167 10.4167V43.75M39.5833 43.75H10.4167M39.5833 43.75H43.75M39.5833 43.75H29.1667M10.4167 43.75H6.25M10.4167 43.75H20.8333M29.1667 43.75V33.3333C29.1667 32.7808 28.9472 32.2509 28.5565 31.8602C28.1658 31.4695 27.6359 31.25 27.0833 31.25H22.9167C22.3641 31.25 21.8342 31.4695 21.4435 31.8602C21.0528 32.2509 20.8333 32.7808 20.8333 33.3333V43.75M29.1667 43.75H20.8333M18.75 14.5833H20.8333M18.75 22.9167H20.8333M29.1667 14.5833H31.25M29.1667 22.9167H31.25" stroke="#043AA3" stroke-width="2" stroke-linecap="round" stroke-linejoin="round"/>
</svg>
